Coordinates
version=1
nRows=17
nColumns=33
inDegrees=yes

Units are S.I. units (second, meters, Newtons, ...)
Angles are in degrees.

endheader
time	ground_thorax_rot_x	ground_thorax_rot_y	ground_thorax_rot_z	ground_thorax_tx	ground_thorax_ty	ground_thorax_tz	clav_prot_r	clav_elev_r	scapula_abduction_r	scapula_elevation_r	scapula_upward_rot_r	scapula_winging_r	shoulder_elv_r	plane_of_elev_r	axial_rot_r	elbow_flexion_r	pro_sup_r	wrist_flex_r	wrist_dev_r	clav_prot_l	clav_elev_l	scapula_abduction_l	scapula_elevation_l	scapula_upward_rot_l	scapula_winging_l	shoulder_elv_l	plane_of_elev_l	axial_rot_l	elbow_flexion_l	pro_sup_l	wrist_flex_l	wrist_dev_l
      9.63000000	     20.62219320	     37.10507253	     52.01751463	    -82.90362842	    784.86338088	     11.40687878	     14.70076816	     45.00000000	     45.00000000	     45.00000000	     45.00000000	  -2553.09076379	  -1602.51724746	    -90.00000000	   -100.51678980	    358.30462642	    -97.41300994	     17.57989907	     11.74749056	     10.88350863	    -45.00000000	    -40.32842330	     45.00000000	    -45.00000000	    814.87890039	  -2810.63921087	     17.91371884	    -63.05174226	   -350.35761640	     25.44556583	      8.05753481	    -19.78909590
      9.64000000	     20.99590544	     37.04342536	     51.36822899	    -85.57634848	    785.53186718	     11.15983952	     14.67391676	     45.00000000	     45.00000000	     45.00000000	     45.00000000	  -2552.72772086	  -1602.34905520	    -90.00000000	   -100.67228076	    358.46480574	    -98.14454988	     17.85197996	     11.96656012	     10.80215970	    -45.00000000	    -40.48523372	     45.00000000	    -45.00000000	    815.01106585	  -2810.56225242	     18.27748904	    -62.72230837	   -350.25402557	     25.23626460	      7.94706767	    -19.82616012
      9.65000000	     21.23600274	     36.92899208	     50.98972812	    -88.32123480	    786.23209983	     10.91639853	     14.64554074	     45.00000000	     45.00000000	     45.00000000	     45.00000000	  -2552.49899435	  -1602.28456449	    -90.00000000	   -100.72409379	    358.56618012	    -98.87717767	     17.85816181	     12.08767133	     10.89683127	    -45.00000000	    -40.58464241	     45.00000000	    -45.00000000	    815.20628420	  -2810.32987541	     18.41662634	    -62.60799428	   -350.07970407	     25.05354190	      7.89889456	    -19.89963473
      9.66000000	     21.40634370	     36.86180340	     50.73965265	    -91.13836874	    786.95980467	     10.67864594	     14.61105954	     45.00000000	     45.00000000	     45.00000000	     45.00000000	  -2552.24637282	  -1602.31599475	    -90.00000000	   -100.67919658	    358.64398913	    -99.65622917	     17.92276325	     12.23045037	     10.95032909	    -45.00000000	    -40.55733402	     45.00000000	    -45.00000000	    815.33871571	  -2810.07248197	     18.46697889	    -62.14351040	   -349.99672543	     24.81418146	      7.81256997	    -19.93607509
      9.67000000	     21.69959367	     36.72055661	     50.21531001	    -94.03239406	    787.71248305	     10.44868348	     14.57621528	     45.00000000	     45.00000000	     45.00000000	     45.00000000	  -2552.01052833	  -1602.20709850	    -90.00000000	   -100.77499589	    358.68164109	   -100.42542553	     18.08156952	     12.40579289	     10.96056513	    -45.00000000	    -40.70545159	     45.00000000	    -45.00000000	    815.51013819	  -2809.89365577	     18.72414406	    -61.79629982	   -349.90518961	     24.57332236	      7.76515319	    -19.99107138
      9.68000000	     21.85881073	     36.60529902	     50.05480170	    -97.00186978	    788.48680768	     10.22844895	     14.53093471	     45.00000000	     45.00000000	     45.00000000	     45.00000000	  -2551.67820635	  -1602.33352305	    -90.00000000	   -100.63358955	    358.74246915	   -101.22847277	     17.93266163	     12.48811774	     11.15285384	    -45.00000000	    -40.61918335	     45.00000000	    -45.00000000	    815.64574333	  -2809.53340212	     18.69217106	    -61.44590156	   -349.82606850	     24.29422017	      7.71967200	    -20.03077930
      9.69000000	     22.13960419	     36.46312430	     49.59073835	   -100.03059140	    789.27603212	     10.02058907	     14.48943743	     45.00000000	     45.00000000	     45.00000000	     45.00000000	  -2551.46552290	  -1602.37861812	    -90.00000000	   -100.57287463	    358.76560335	   -102.01546427	     17.96908580	     12.63869207	     11.22150249	    -45.00000000	    -40.71305995	     45.00000000	    -45.00000000	    815.78285623	  -2809.35732596	     18.79443751	    -61.11105293	   -349.77051291	     23.98288860	      7.69040636	    -20.07138539
      9.70000000	     22.44835128	     36.34192403	     48.97629125	   -103.11988517	    790.07854124	      9.82576760	     14.46740925	     45.00000000	     45.00000000	     45.00000000	     45.00000000	  -2551.23121459	  -1602.09955261	    -90.00000000	   -100.83862468	    358.89760984	   -102.71108195	     18.38755279	     12.89586854	     11.04413409	    -45.00000000	    -40.91989889	     45.00000000	    -45.00000000	    816.00021354	  -2809.28280746	     19.12372460	    -60.70651114	   -349.72399795	     23.68386429	      7.66116885	    -20.11946357
      9.71000000	     22.69897283	     36.19647166	     48.54484123	   -106.27182362	    790.89192166	      9.64456222	     14.42762876	     45.00000000	     45.00000000	     45.00000000	     45.00000000	  -2550.96328417	  -1602.01037472	    -90.00000000	   -100.91433939	    358.99473025	   -103.37790272	     18.38316498	     13.00333698	     11.11069930	    -45.00000000	    -40.96477668	     45.00000000	    -45.00000000	    816.16028916	  -2809.02927368	     19.24992679	    -60.40025200	   -349.61455579	     23.38123463	      7.64666619	    -20.16979063
      9.72000000	     22.96718795	     36.03731617	     48.12785534	   -109.47626703	    791.71171587	      9.47815984	     14.38959035	     45.00000000	     45.00000000	     45.00000000	     45.00000000	  -2550.65182012	  -1602.01302530	    -90.00000000	   -100.89777781	    359.02429579	   -104.02840596	     18.39775305	     13.12436652	     11.18394824	    -45.00000000	    -40.95176363	     45.00000000	    -45.00000000	    816.30171138	  -2808.76823707	     19.40070091	    -59.98248005	   -349.56644092	     23.04558520	      7.60815337	    -20.19765925
      9.73000000	     23.20579260	     35.85626825	     47.76274668	   -112.71946451	    792.53329016	      9.32741272	     14.34372025	     45.00000000	     45.00000000	     45.00000000	     45.00000000	  -2550.41598623	  -1602.03720297	    -90.00000000	   -100.85903063	    359.06031506	   -104.66020719	     18.38396812	     13.23224895	     11.33188562	    -45.00000000	    -40.96637154	     45.00000000	    -45.00000000	    816.51567671	  -2808.55189076	     19.47720423	    -59.79758512	   -349.51576917	     22.70594075	      7.56952242	    -20.21835297
      9.74000000	     23.48814702	     35.68112660	     47.27226779	   -115.99594897	    793.35703432	      9.19202083	     14.30912228	     45.00000000	     45.00000000	     45.00000000	     45.00000000	  -2550.16689556	  -1602.00240143	    -90.00000000	   -100.87944815	    359.07101015	   -105.27690432	     18.50227776	     13.37221362	     11.31738799	    -45.00000000	    -41.04100792	     45.00000000	    -45.00000000	    816.65000813	  -2808.33976973	     19.60899632	    -59.34825403	   -349.47701098	     22.32207828	      7.55547492	    -20.24083740
      9.75000000	     23.75121255	     35.49820376	     46.83118002	   -119.29196677	    794.18305934	      9.07084270	     14.26632827	     45.00000000	     45.00000000	     45.00000000	     45.00000000	  -2549.92906571	  -1602.01122686	    -90.00000000	   -100.85576427	    359.06456859	   -105.88823017	     18.51285445	     13.47000963	     11.40462473	    -45.00000000	    -41.07601783	     45.00000000	    -45.00000000	    816.80230944	  -2808.11507436	     19.71034924	    -59.06271507	   -349.45678877	     21.91647376	      7.53145540	    -20.24777200
      9.76000000	     24.02929389	     35.29927454	     46.35820381	   -122.59222338	    795.01426917	      8.96182438	     14.22741124	     45.00000000	     45.00000000	     45.00000000	     45.00000000	  -2549.69367494	  -1602.00845739	    -90.00000000	   -100.84371021	    359.05774177	   -106.49059384	     18.60012826	     13.59544628	     11.43002732	    -45.00000000	    -41.12489678	     45.00000000	    -45.00000000	    816.97163789	  -2807.90508125	     19.83735465	    -58.73924179	   -349.42462071	     21.46208831	      7.51150520	    -20.25505134
      9.77000000	     24.31749039	     35.10557989	     45.84863226	   -125.88164202	    795.85469814	      8.86204256	     14.19234017	     45.00000000	     45.00000000	     45.00000000	     45.00000000	  -2549.45654408	  -1601.99291247	    -90.00000000	   -100.84517432	    359.04264952	   -107.07606650	     18.77027265	     13.74675661	     11.42376894	    -45.00000000	    -41.22759291	     45.00000000	    -45.00000000	    817.15811207	  -2807.71832486	     20.00311004	    -58.44683480	   -349.35653201	     20.97652300	      7.50360140	    -20.27179196
      9.78000000	     24.59642648	     34.85794770	     45.38963180	   -129.15414468	    796.71044333	      8.76820407	     14.14808588	     45.00000000	     45.00000000	     45.00000000	     45.00000000	  -2549.26448804	  -1602.03671367	    -90.00000000	   -100.78675407	    358.99142039	   -107.66123980	     18.76659127	     13.83033551	     11.50750420	    -45.00000000	    -41.19729587	     45.00000000	    -45.00000000	    817.31684190	  -2807.48993084	     20.08926261	    -58.08738390	   -349.38873152	     20.41354468	      7.48763335	    -20.25135549
      9.79000000	     24.88305564	     34.64401758	     44.87119511	   -132.39609176	    797.58431766	      8.67776617	     14.11239010	     45.00000000	     45.00000000	     45.00000000	     45.00000000	  -2549.03739314	  -1602.03392740	    -90.00000000	   -100.77533069	    358.96606027	   -108.23622783	     18.91604382	     13.97423193	     11.50013863	    -45.00000000	    -41.26740958	     45.00000000	    -45.00000000	    817.46293280	  -2807.28593037	     20.22932706	    -57.68617930	   -349.35352138	     19.78649209	      7.50134569	    -20.25306043
